<?xml version="1.0" encoding="utf-8"?>
<!-- Generator: Adobe Illustrator 28.0.0, SVG Export Plug-In . SVG Version: 6.00 Build 0)  -->
<svg version="1.1" id="Layer_1" xmlns="http://www.w3.org/2000/svg" xmlns:xlink="http://www.w3.org/1999/xlink" x="0px" y="0px"
	 viewBox="0 0 121 121" style="enable-background:new 0 0 121 121;" xml:space="preserve">
<style type="text/css">
	.st0{fill:#00953B;}
	.st1{fill:#FFFFFF;}
	.st2{display:none;}
	.st3{display:inline;fill:#FFFFFF;}
</style>
<g id="Group_2319_00000097484392795257150820000017170631091844210061_" transform="translate(1666.236 621.392)">
	<g id="Group_2317_00000035527535925951552360000007965105851001706413_">
		<path id="Path_21500_00000033365737859343341500000007492956743494330262_" class="st0" d="M-1664.6-604.5
			c3.9-4,9.2-9.1,15.5-15.3l1.2-1.1h102.2v120h-120v-102.4L-1664.6-604.5z"/>
	</g>
</g>
<g>
	<path class="st1" d="M60.4,38.7c-9,0-16.4,7.4-16.4,16.4s7.4,16.4,16.4,16.4s16.4-7.4,16.4-16.4S69.5,38.7,60.4,38.7z M69.7,51.2
		c0,0-10.5,10.5-10.5,10.5c-0.7,0.7-2,0.8-2.8,0l-5.2-5.2c-0.8-0.8-0.8-2,0-2.8c0.8-0.8,2-0.8,2.8,0l3.9,3.9l9.1-9.1
		c0.8-0.8,2-0.8,2.8,0S70.5,50.4,69.7,51.2z"/>
	<path class="st1" d="M88.6,55.1c0-15.6-12.7-28.2-28.2-28.2S32.2,39.5,32.2,55.1s12.7,28.2,28.2,28.2S88.6,70.6,88.6,55.1z
		 M60.4,75.4c-11.2,0-20.3-9.1-20.3-20.3s9.1-20.3,20.3-20.3s20.3,9.1,20.3,20.3S71.7,75.4,60.4,75.4z"/>
	<path class="st1" d="M36.7,83.4c-0.7,1.2,0,2.7,1.4,2.9c0,0,7.1,1.3,7.1,1.3l4.7,5.5c0.9,1,2.5,0.8,3.2-0.3c0,0,3.3-5.8,3.3-5.8
		c-6.6-0.8-12.5-3.6-17.2-7.8L36.7,83.4z"/>
	<path class="st1" d="M81.7,79.1c-4.7,4.2-10.6,7-17.2,7.8l3.3,5.8c0.7,1.2,2.3,1.3,3.2,0.3c0,0,4.7-5.5,4.7-5.5s7.1-1.3,7.1-1.3
		c1.2-0.2,2-1.8,1.4-2.9C84.1,83.4,81.7,79.1,81.7,79.1z"/>
</g>
<g class="st2">
	<path class="st3" d="M77.2,33.6L66.1,31l-1.7,1.7l2.6,11.1l2.1,2.1l-5.5,5.5l5.1,5.1l5.5-5.5l4.7,4.7l10.3-10.3L77.2,33.6z
		 M71.3,41.4l-1-4.4l4.4,1l7.6,7.6l-3.4,3.4L71.3,41.4z"/>
	<polygon class="st3" points="89.1,82.2 85.8,78.8 83.2,81.4 81.5,79.7 84.1,77.1 81.5,74.5 77.2,78.8 75.5,77.1 79.8,72.8 
		77.2,70.3 74.7,72.8 73,71.1 75.5,68.5 73,66 68.7,70.3 67,68.5 71.3,64.3 68.7,61.7 66.1,64.3 64.4,62.6 67,60 64.4,57.4 
		60.1,61.7 58.4,60 62.7,55.7 60.1,53.2 57.6,55.7 55.9,54 58.4,51.5 55.9,48.9 51.6,53.2 49.9,51.5 54.2,47.2 51.6,44.6 49,47.2 
		47.3,45.5 49.9,42.9 47.3,40.3 43.1,44.6 41.3,42.9 45.6,38.6 43.1,36.1 40.5,38.6 38.8,36.9 41.3,34.4 38,31 31.1,37.8 54.2,60.9 
		31.1,83.9 36.3,89 59.3,66 82.3,89 	"/>
</g>
</svg>
