<?xml version="1.0" encoding="utf-8"?>
<!-- Generator: Adobe Illustrator 27.4.1, SVG Export Plug-In . SVG Version: 6.00 Build 0)  -->
<svg version="1.1" id="Layer_1" xmlns="http://www.w3.org/2000/svg" xmlns:xlink="http://www.w3.org/1999/xlink" x="0px" y="0px"
	 viewBox="0 0 150 150" style="enable-background:new 0 0 150 150;" xml:space="preserve">
<style type="text/css">
	.st0{opacity:0.15;fill:#FFFFFF;}
</style>
<path class="st0" d="M92.2,149H57c-1,0-1.9-0.4-2.5-1s-1-1.5-1-2.5s0.4-1.9,1-2.5c0.7-0.7,1.5-1,2.5-1h35.2c1,0,1.9,0.4,2.5,1
	s1,1.5,1,2.5s-0.4,1.9-1,2.5S93.2,149,92.2,149z"/>
<path class="st0" d="M101.8,133.9c0.6-0.6,1-1.5,1-2.5s-0.4-1.9-1-2.5c-0.7-0.7-1.5-1-2.5-1H50c-1,0-1.9,0.4-2.5,1
	c-0.6,0.7-1,1.5-1,2.5s0.4,1.9,1,2.5c0.7,0.6,1.5,1,2.5,1h49.3C100.3,134.9,101.2,134.5,101.8,133.9z"/>
<path class="st0" d="M34.7,121.3c2.7-2.7,2.7-7.2,0-10C24,100.6,18.2,86.5,18.2,71.4s5.9-29.2,16.5-39.9S59.5,15,74.6,15
	s29.2,5.9,39.9,16.5c10.6,10.8,16.5,25,16.5,40s-5.9,29.2-16.5,39.9c-2.7,2.7-2.7,7.2,0,10s7.2,2.7,10,0
	c13.3-13.3,20.7-31,20.7-49.8s-7.3-36.5-20.7-49.8C111.1,8.3,93.4,1,74.6,1S38.1,8.3,24.8,21.7C11.5,35,4.1,52.7,4.1,71.5
	s7.3,36.5,20.7,49.8c1.4,1.4,3.2,2.1,5,2.1S33.4,122.7,34.7,121.3z"/>
</svg>
