<?xml version="1.0" encoding="utf-8"?>
<!-- Generator: Adobe Illustrator 28.1.0, SVG Export Plug-In . SVG Version: 6.00 Build 0)  -->
<svg version="1.1" id="Layer_1" xmlns="http://www.w3.org/2000/svg" xmlns:xlink="http://www.w3.org/1999/xlink" x="0px" y="0px"
	 viewBox="0 0 32 32" style="enable-background:new 0 0 32 32;" xml:space="preserve">
<style type="text/css">
	.st0{display:none;}
	.st1{display:inline;}
	.st2{fill:#323E48;}
	.st3{fill:#00AE41;}
	.st4{fill:#7738C8;}
</style>
<g id="Layer_1_00000023972803848789192550000001949318468288755130_" class="st0">
	<g class="st1">
		<g>
			<path class="st2" d="M23.6,21.4h-4c-0.6,0-1,0.4-1,1s0.4,1,1,1h4c0.6,0,1-0.4,1-1S24.1,21.4,23.6,21.4z"/>
			<path class="st2" d="M11.6,21.4h-4c-0.6,0-1,0.4-1,1s0.4,1,1,1h4c0.6,0,1-0.4,1-1S12.1,21.4,11.6,21.4z"/>
			<path class="st2" d="M26.6,7.4c-0.5,0-0.9-0.2-1.3-0.5c-0.9-1.1-0.9-3.5-0.7-4.3c0-0.3,0-0.6-0.2-0.8s-0.5-0.3-0.8-0.3h-4
				c-0.1,0-0.2,0-0.2,0l-2,0.5c-1.1,0.3-2.3,0.3-3.5,0l-2-0.5c-0.1,0-0.2,0-0.2,0h-4C7.3,1.4,7,1.5,6.8,1.7C6.7,1.9,6.6,2.2,6.6,2.5
				c0.1,0.8,0.2,3.3-0.7,4.3C5.5,7.2,5.1,7.4,4.6,7.4c-0.6,0-1,0.4-1,1v17c0,0.6,0.4,1,1,1s1-0.4,1-1V9.2C6.3,9,6.9,8.7,7.4,8.1
				c1.2-1.3,1.3-3.5,1.3-4.8h2c0.1,2,0.8,6.6,4,7.8v3.2c-1.4,0-2.5,1.1-2.5,2.5v1c0,1.4,1.1,2.5,2.5,2.5v5c0,0.6,0.4,1,1,1
				c0.6,0,1-0.4,1-1v-5c1.4,0,2.5-1.1,2.5-2.5v-1c0-1.4-1.1-2.5-2.5-2.5v-3.2c3.2-1.2,3.8-5.7,4-7.8h2c0,1.3,0.1,3.4,1.3,4.8
				c0.5,0.5,1.1,0.9,1.8,1.1v16.1c0,0.6,0.4,1,1,1s1-0.4,1-1v-17C27.6,7.8,27.1,7.4,26.6,7.4z M17.1,16.9v1c0,0.3-0.2,0.5-0.5,0.5
				h-2c-0.3,0-0.5-0.2-0.5-0.5v-1c0-0.3,0.2-0.5,0.5-0.5h2C16.9,16.4,17.1,16.6,17.1,16.9z M15.6,9.3c-2.1-0.5-2.7-3.8-2.9-5.7
				l0.7,0.2c1.4,0.4,3,0.4,4.4,0l0.7-0.2C18.3,5.5,17.7,8.8,15.6,9.3z"/>
		</g>
		<g>
			<path class="st3" d="M16.6,27.4v4h10c0.6,0,1-0.4,1-1v-3H16.6z"/>
			<path class="st3" d="M3.6,30.4c0,0.6,0.4,1,1,1h10v-4h-11C3.6,27.4,3.6,30.4,3.6,30.4z"/>
		</g>
	</g>
</g>
<g id="Layer_2_00000170273798380622973320000012364725973703978113_" class="st0">
	<g class="st1">
		<g>
			<path class="st2" d="M19.5,10.4c0.6,0,1-0.4,1-1V3.9c0-1.4-1.1-2.5-2.5-2.5H7.5C7.3,1.4,7,1.5,6.8,1.6l-6,6
				C0.7,7.8,0.5,8.1,0.5,8.4v20.5c0,1.4,1.1,2.5,2.5,2.5h15c1.4,0,2.5-1.1,2.5-2.5v-2.6c0-0.6-0.4-1-1-1s-1,0.4-1,1v2.6
				c0,0.3-0.2,0.5-0.5,0.5H3c-0.3,0-0.5-0.2-0.5-0.5V9.5L5.6,10c0.1,0,0.3,0,0.4,0c0.6,0,1.2-0.2,1.6-0.6C8.2,9,8.5,8.3,8.5,7.6V3.4
				H18c0.3,0,0.5,0.2,0.5,0.5v5.6C18.5,10,19,10.4,19.5,10.4z M6.4,8C6.3,8,6.2,8.1,6,8.1L3.6,7.7l2.9-2.9v2.8
				C6.5,7.8,6.4,7.9,6.4,8z"/>
			<path class="st2" d="M12.5,15.6c0.6,0,1-0.4,1-1s-0.4-1-1-1h-6v-1c0-0.6-0.4-1-1-1s-1,0.4-1,1v14c0,0.6,0.4,1,1,1s1-0.4,1-1v-1h2
				c0.6,0,1-0.4,1-1s-0.4-1-1-1h-2v-3h4c0.6,0,1-0.4,1-1s-0.4-1-1-1h-4v-3H12.5z"/>
		</g>
		<g>
			<path class="st3" d="M27.1,23.5c-0.4,0.5-0.9,1-1.5,1.4l3.2,3.2c0.4,0.4,1,0.4,1.4,0l0,0c0.4-0.4,0.4-1,0-1.4L27.1,23.5z"/>
			<path class="st3" d="M21,12.4c-3.3,0-6,2.7-6,6s2.7,6,6,6s6-2.7,6-6C27,15,24.3,12.4,21,12.4z M21.1,20.4
				c-0.2,0.2-0.5,0.3-0.7,0.3s-0.5-0.1-0.7-0.3l-1.5-1.5c-0.4-0.4-0.4-1,0-1.4l0,0c0.4-0.4,1-0.4,1.4,0l0.8,0.8l1.9-1.9
				c0.4-0.4,1-0.4,1.4,0l0,0c0.4,0.4,0.4,1,0,1.4L21.1,20.4z"/>
		</g>
	</g>
</g>
<g id="Layer_3" class="st0">
	<g class="st1">
		<path class="st2" d="M30.3,8.7l-3-3c-0.4-0.4-1-0.4-1.4,0s-0.4,1,0,1.4l1.3,1.3h-3.6c-2.2,0-3.9,1.7-4,3.8c-0.9-0.4-2-0.7-3-0.8
			V4.8l2.3,2.3c0.2,0.2,0.5,0.3,0.7,0.3s0.5-0.1,0.7-0.3c0.4-0.4,0.4-1,0-1.4l-4-4c-0.4-0.4-1-0.4-1.4,0l-4,4c-0.4,0.4-0.4,1,0,1.4
			s1,0.4,1.4,0l2.3-2.3v6.6c-1.1,0.1-2.1,0.4-3,0.8c-0.1-2.1-1.8-3.8-4-3.8H4l1.3-1.3c0.4-0.4,0.4-1,0-1.4s-1-0.4-1.4,0l-3,3
			c-0.4,0.4-0.4,1,0,1.4l3,3c0.2,0.2,0.5,0.3,0.7,0.3s0.5-0.1,0.7-0.3c0.4-0.4,0.4-1,0-1.4L4,10.4h3.6c1.1,0,2,0.9,2,2v1
			c-2.4,1.8-4,4.7-4,8c0,0.1,0,0.3,0,0.4c0.1,0.5,0.5,0.9,1.1,0.9c0.5-0.1,1-0.5,0.9-1.1c0-0.1,0-0.1,0-0.2c0-4.4,3.6-8,8-8
			s8,3.6,8,8c0,0.1,0,0.1,0,0.3l0,0c0,0.5,0.4,1,1,1l0,0c0.5,0,0.9-0.4,1-0.9c0-0.1,0-0.3,0-0.4c0-3.3-1.6-6.2-4-8v-1
			c0-1.1,0.9-2,2-2h3.6l-1.3,1.3c-0.4,0.4-0.4,1,0,1.4c0.2,0.2,0.5,0.3,0.7,0.3s0.5-0.1,0.7-0.3l3-3C30.7,9.7,30.7,9.1,30.3,8.7z"/>
		<g>
			<path class="st4" d="M24.2,25.4C23.4,24,22.3,22.9,21,22c-1,2-3,3.4-5.4,3.4S11.2,24,10.2,22c-1.3,0.8-2.4,2-3.3,3.4
				c-0.2,0.3-0.2,0.7,0,1c1.8,3.1,5.1,5,8.7,5s6.9-1.9,8.7-5C24.4,26.1,24.4,25.7,24.2,25.4z"/>
			<circle class="st4" cx="15.6" cy="19.4" r="4"/>
		</g>
	</g>
</g>
<g>
	<g>
		<path class="st2" d="M28.4,1.1h-25C2,1.1,0.9,2.2,0.9,3.6v20c0,1.4,1.1,2.5,2.5,2.5h8.5v3h-5c-0.6,0-1,0.4-1,1s0.4,1,1,1h18
			c0.6,0,1-0.4,1-1s-0.4-1-1-1h-5v-3h8.5c1.4,0,2.5-1.1,2.5-2.5v-20C30.9,2.2,29.8,1.1,28.4,1.1z M3.4,3.1h25c0.3,0,0.5,0.2,0.5,0.5
			v16.5h-26V3.6C2.9,3.3,3.1,3.1,3.4,3.1z M17.9,29.1h-4v-3h4V29.1z M28.4,24.1h-25c-0.3,0-0.5-0.2-0.5-0.5v-1.5h26v1.5
			C28.9,23.9,28.7,24.1,28.4,24.1z"/>
		<path class="st2" d="M17.9,10.1h4c0.6,0,1-0.4,1-1s-0.4-1-1-1h-4c-0.6,0-1,0.4-1,1S17.4,10.1,17.9,10.1z"/>
		<path class="st2" d="M25.4,10.1h0.5c0.6,0,1-0.4,1-1s-0.4-1-1-1h-0.5c-0.6,0-1,0.4-1,1S24.9,10.1,25.4,10.1z"/>
		<path class="st2" d="M19.4,18.1h5c1.4,0,2.5-1.1,2.5-2.5v-1c0-1.4-1.1-2.5-2.5-2.5h-5c-1.4,0-2.5,1.1-2.5,2.5v1
			C16.9,17,18,18.1,19.4,18.1z M18.9,14.6c0-0.3,0.2-0.5,0.5-0.5h5c0.3,0,0.5,0.2,0.5,0.5v1c0,0.3-0.2,0.5-0.5,0.5h-5
			c-0.3,0-0.5-0.2-0.5-0.5V14.6z"/>
	</g>
	<g class="st0">
		<g class="st1">
			<circle class="st4" cx="9.9" cy="8.1" r="3"/>
		</g>
		<g class="st1">
			<path class="st4" d="M13.5,11.6c-0.9,0.9-2.2,1.5-3.6,1.5s-2.7-0.6-3.6-1.5c-0.9,0.9-1.4,2.1-1.4,3.5v0.5c0,1.4,1.1,2.5,2.5,2.5
				h5c1.4,0,2.5-1.1,2.5-2.5v-0.5C14.9,13.7,14.4,12.5,13.5,11.6z"/>
		</g>
	</g>
</g>
<path class="st3" d="M14.5,5.1h-1.4c-0.1,0-0.2,0-0.3,0.1l-1.2,1.1c0-0.6-0.6-1.2-1.2-1.2H6c-0.7,0-1.2,0.6-1.2,1.2v4.9
	c0,0.7,0.6,1.2,1.2,1.2h4.4c0.7,0,1.2-0.5,1.2-1.2l1.2,1.1c0.1,0.1,0.2,0.1,0.3,0.1h1.4c0.2,0,0.4-0.2,0.4-0.4V5.5
	C14.9,5.3,14.7,5.1,14.5,5.1z M7.4,9.2H6.8C6.6,9.2,6.4,9,6.4,8.8c0-0.2,0.2-0.4,0.4-0.4h0.5c0.2,0,0.4,0.2,0.4,0.4
	C7.8,9,7.6,9.2,7.4,9.2z M7.4,7.6H6.8c-0.2,0-0.4-0.2-0.4-0.4c0-0.2,0.2-0.4,0.4-0.4h0.5c0.2,0,0.4,0.2,0.4,0.4
	C7.8,7.4,7.6,7.6,7.4,7.6z"/>
</svg>
