<?xml version="1.0" encoding="utf-8"?>
<!-- Generator: Adobe Illustrator 28.2.0, SVG Export Plug-In . SVG Version: 6.00 Build 0)  -->
<svg version="1.1" id="Layer_1" xmlns="http://www.w3.org/2000/svg" xmlns:xlink="http://www.w3.org/1999/xlink" x="0px" y="0px"
	 viewBox="0 0 64 64" style="enable-background:new 0 0 64 64;" xml:space="preserve">
<style type="text/css">
	.st0{fill:none;stroke:#8DC63F;stroke-width:2;stroke-linecap:round;stroke-linejoin:round;stroke-miterlimit:10;}
</style>
<g>
	<circle class="st0" cx="38.8" cy="50.9" r="8.1"/>
	<path class="st0" d="M17.8,53.7c0,2.9-2.4,5.3-5.3,5.3c-2.9,0-5.3-2.4-5.3-5.3c0-2.9,2.4-5.3,5.3-5.3
		C15.4,48.4,17.8,50.8,17.8,53.7z"/>
	<line class="st0" x1="17.7" y1="54.8" x2="31.7" y2="54.8"/>
	<line class="st0" x1="41.6" y1="38.7" x2="41.6" y2="43.3"/>
	<path class="st0" d="M15.7,45.3v-3.1c0-1.4,1.1-2.5,2.5-2.5h14.2"/>
	<line class="st0" x1="22.2" y1="36.6" x2="25.6" y2="36.6"/>
	<path class="st0" d="M45.5,21.4l5.4,7v13.6l-5.2,4.8l-0.2-31.3c0-0.6,0.3-1,0.8-1.3l6-2.6c0.3-0.1,0.6-0.5,0.6-0.9L53.7,8
		c0-0.7-0.7-1.1-1.3-0.9l-8.7,3.8c-1.2,0.5-2,1.7-2,3v24.8h-7.5L23,45.3H10.6c-0.5,0-1.1,0.1-1.5,0.4l-4.6,2.4
		c-0.8,0.4-1.3,1.3-1.3,2.2V53c0,1,0.8,1.8,1.8,1.8h2.5"/>
	<line class="st0" x1="51.9" y1="46.6" x2="54.5" y2="45.3"/>
	<line class="st0" x1="56.3" y1="49.2" x2="60.1" y2="49.2"/>
	<line class="st0" x1="51.9" y1="51.9" x2="55.7" y2="53.7"/>
</g>
</svg>
