<?xml version="1.0" encoding="utf-8"?>
<!-- Generator: Adobe Illustrator 28.2.0, SVG Export Plug-In . SVG Version: 6.00 Build 0)  -->
<svg version="1.1" id="Layer_1" xmlns="http://www.w3.org/2000/svg" xmlns:xlink="http://www.w3.org/1999/xlink" x="0px" y="0px"
	 viewBox="0 0 64 64" style="enable-background:new 0 0 64 64;" xml:space="preserve">
<style type="text/css">
	.st0{fill:none;stroke:#8DC63F;stroke-width:2;stroke-linecap:round;stroke-linejoin:round;stroke-miterlimit:10;}
</style>
<g>
	<path class="st0" d="M2.9,53.9V34.3c0-1.4,1.1-2.5,2.5-2.5h8.7c1.4,0,2.5,1.1,2.5,2.5v19.6c0,1.4-1.1,2.5-2.5,2.5H5.4
		C4,56.4,2.9,55.3,2.9,53.9z"/>
	<path class="st0" d="M16.7,35l13.9-6.5V31c0,1.5,1.3,2.7,2.8,2.7l16.3-0.4c1.1,0,2.1,0.9,2.1,2v1.8c0,1.1-0.8,1.9-1.9,2l0,0
		l-16.4,0.8"/>
	<path class="st0" d="M36.2,46.3l10.1-0.5c1.9-0.1,3.4-1.6,3.4-3.6l0.1-3.2"/>
	<path class="st0" d="M36.2,52.1l8-0.3c1.6-0.1,2.8-1.4,2.8-3v-3"/>
	<path class="st0" d="M16.7,53.9l3.2,1.7c2,1.1,4.3,1.6,6.6,1.6h12.3c4.1,0,4.8-1.9,4.8-4.3"/>
	<line class="st0" x1="9.8" y1="31.8" x2="9.8" y2="39.9"/>
	<path class="st0" d="M30.6,28.5V10.3c0-1,0.8-1.8,1.8-1.8h0.7c1,0,1.8,0.8,1.8,1.8v23.4"/>
	<path class="st0" d="M18.2,11.7c0,0,11.5-3.3,12.4,6.3C30.6,18,19.9,22.4,18.2,11.7z"/>
	<path class="st0" d="M47.4,15.8c0,0-11.7-1.9-12.5,7.2C34.9,23.1,45.8,26.6,47.4,15.8z"/>
	<line class="st0" x1="39.2" y1="33.5" x2="39.2" y2="23.6"/>
	<path class="st0" d="M34.9,13c0-1,0.8-1.8,1.8-1.8h0.7c1,0,1.8,0.8,1.8,1.8v3.7"/>
	<line class="st0" x1="43.5" y1="33.4" x2="43.5" y2="22.4"/>
	<path class="st0" d="M39.2,16.8V7.4c0-1,0.8-1.8,1.8-1.8h0.7c1,0,1.8,0.8,1.8,1.8v8.3"/>
	<path class="st0" d="M43.5,13c0-1,0.8-1.8,1.8-1.8H46c1,0,1.8,0.8,1.8,1.8v20.3"/>
	<path class="st0" d="M47.8,26c0,0,1.3-8.6,12.5-5.8C60.3,20.2,57.5,29.1,47.8,26z"/>
	<path class="st0" d="M47.8,15.8c0,0,0.6-7.5,9.6-4.5C57.4,11.3,56.1,17.9,47.8,15.8z"/>
	<path class="st0" d="M30.6,28.5c0,0,0-5.8-7.2-4.5C23.4,24,24,29.8,30.6,28.5z"/>
	<path class="st0" d="M47.8,45.4v9.7c0,1.2-1,2.2-2.2,2.2l0,0c-1.2,0-2.2-1-2.2-2.2v-3.3"/>
</g>
</svg>
