<?xml version="1.0" encoding="utf-8"?>
<!-- Generator: Adobe Illustrator 27.9.2, SVG Export Plug-In . SVG Version: 6.00 Build 0)  -->
<svg version="1.1" id="Layer_1" xmlns="http://www.w3.org/2000/svg" xmlns:xlink="http://www.w3.org/1999/xlink" x="0px" y="0px"
	 viewBox="0 0 64 64" style="enable-background:new 0 0 64 64;" xml:space="preserve">
<style type="text/css">
	.st0{opacity:5.000000e-02;}
	.st1{fill:none;stroke:#231F20;stroke-width:2;stroke-linecap:round;stroke-linejoin:round;stroke-miterlimit:10;}
</style>
<g class="st0">
	<path class="st1" d="M9.8,49.2V30.6c0-1.3,1.1-2.4,2.4-2.4h8.3c1.3,0,2.4,1.1,2.4,2.4v18.6c0,1.3-1.1,2.4-2.4,2.4h-8.3
		C10.9,51.6,9.8,50.5,9.8,49.2z"/>
	<path class="st1" d="M22.9,31.3L36.1,25v2.4c0,1.4,1.2,2.6,2.6,2.6l15.5-0.4c1.1,0,2,0.8,2,1.9v1.7c0,1-0.8,1.8-1.8,1.9l0,0
		l-15.6,0.8"/>
	<path class="st1" d="M41.4,42l9.6-0.5c1.8-0.1,3.2-1.6,3.3-3.4l0.1-3.1"/>
	<path class="st1" d="M41.4,47.5l7.6-0.3c1.5-0.1,2.7-1.3,2.7-2.8v-2.9"/>
	<path class="st1" d="M22.9,49.2l3,1.6c1.9,1,4.1,1.6,6.2,1.6h11.7c2.3,0,4.1-1.8,4.1-4.1v-0.8"/>
	<path class="st1" d="M51.7,29.7v-6.2c0,0-0.7-16.2,5.9-19c0,0-11.3-0.6-12,14.2"/>
	<path class="st1" d="M36.1,25c0,0,0.6-10.1-4.8-12.5c0,0,11.1,1.1,10.1,17.4"/>
	<path class="st1" d="M40.5,21.3C40,11.3,33.9,5.7,33.9,5.7s13.4,1.1,12.7,24.1"/>
	<path class="st1" d="M36,52.4v6.2c0,0.9,0.7,1.6,1.6,1.6h2c1,0,1.8-0.8,1.8-1.8v-6.1"/>
	<path class="st1" d="M41.5,58.6h3.8c1.4,0,2.6-1.2,2.6-2.6v-7.7"/>
	<path class="st1" d="M52.6,41.1v12.3c0,1.4-1.2,2.6-2.6,2.6h-2.1"/>
	<path class="st1" d="M51.7,26.6c0,0-0.9-7.8,6.2-9.6c0,0-3.2,5.8-2.6,12.9"/>
	<path class="st1" d="M55.8,34.3v15.6c0,1.4-1.1,2.5-2.5,2.5h-0.7"/>
	<path class="st1" d="M43.6,13.2c0,0-2.1-7.5,3.6-9.4c0,0-1.6,4.2-0.1,7.9"/>
	<path class="st1" d="M52.1,15.3c0,0,1-4.6,5.3-5c0,0-2.4,2.3-2,7.8"/>
	<polyline class="st1" points="9.8,30.6 6.1,30.6 6.1,49 9.8,49 	"/>
</g>
</svg>
