<?xml version="1.0" encoding="utf-8"?>
<!-- Generator: Adobe Illustrator 28.2.0, SVG Export Plug-In . SVG Version: 6.00 Build 0)  -->
<svg version="1.1" id="Layer_1" xmlns="http://www.w3.org/2000/svg" xmlns:xlink="http://www.w3.org/1999/xlink" x="0px" y="0px"
	 viewBox="0 0 64 64" style="enable-background:new 0 0 64 64;" xml:space="preserve">
<style type="text/css">
	.st0{fill:none;stroke:#8DC63F;stroke-width:2;stroke-linecap:round;stroke-linejoin:round;stroke-miterlimit:10;}
</style>
<g>
	<path class="st0" d="M51.3,57.2H11.9c-1.3,0-2.5-0.9-2.7-2.2L6,40h51.1L54,55C53.8,56.3,52.6,57.2,51.3,57.2z"/>
	<path class="st0" d="M58.1,40H5c-0.9,0-1.6-0.7-1.6-1.6v-0.6c0-0.9,0.7-1.6,1.6-1.6h53.1c0.9,0,1.6,0.7,1.6,1.6v0.6
		C59.7,39.3,59,40,58.1,40z"/>
	<path class="st0" d="M8.7,36.2c0,0,3.1-12-2.6-22.9c0,0,10.1,3.7,9.2,22.9"/>
	<path class="st0" d="M22.4,36.2c0,0-3.6-19.3,5.3-27.4c0,0-4.3,13.1,0.9,27.4"/>
	<path class="st0" d="M15.2,32.3c1.7-7.7,0-20.1,0-20.1s6.6,7.5,6.5,18.7"/>
	<path class="st0" d="M27.4,32.3c0,0,3.4-3.7,3.5-18.9c0,0,5.3,8.9,2.3,22.9"/>
	<path class="st0" d="M41.2,36.2c0,0-4-6.6,0-26.5c0,0-6.4,6.8-7.1,18.5"/>
	<path class="st0" d="M40.1,32.9c0,0,5-11.1,4.8-20.7c0,0,3.2,12.1,0.3,24"/>
	<path class="st0" d="M53.5,36.2c0,0-1.7-12.2,1.6-22c0,0-7.2,5.6-9,17.6"/>
</g>
</svg>
