<?xml version="1.0" encoding="utf-8"?>
<!-- Generator: Adobe Illustrator 25.4.1, SVG Export Plug-In . SVG Version: 6.00 Build 0)  -->
<svg version="1.1" id="Layer_1" xmlns="http://www.w3.org/2000/svg" xmlns:xlink="http://www.w3.org/1999/xlink" x="0px" y="0px"
	 viewBox="0 0 128 128" style="enable-background:new 0 0 128 128;" xml:space="preserve">
<style type="text/css">
	.st0{fill:#FFFFFF;}
	.st1{display:none;}
	.st2{display:inline;fill:#5A81BB;}
	.st3{fill:#5A81BB;}
</style>
<circle class="st0" cx="64" cy="64" r="64"/>
<g class="st1">
	<path class="st2" d="M50.6,24.8c-0.4-1.1-2.1-1.2-2.9-0.1c-0.6,0.8-0.6,1.7,0,2.3C48.9,28.3,51.3,26.5,50.6,24.8z"/>
	<path class="st2" d="M82.5,88.5c1.8-0.3,2.5-1.3,2-2.6c-0.4-0.9-1.4-1.2-3-0.9c-3.7,0.6-6.7,3.7-7.4,7.7c-0.7,4,1.9,8,5.9,9.1
		c5,1.4,10.5-2.7,10.9-8.1c0.2-3.2-1.1-6-2.8-5.6c-0.4,0.1-0.9,0.3-1,0.4c-0.5,0.4-0.6,1.6-0.2,2.6c1,2.4-0.1,5.5-2.4,6.7
		c-2,1-3.9,0.8-5.4-0.7C76.1,94.2,78.2,89.2,82.5,88.5z"/>
	<path class="st2" d="M86.2,64.2c-1.1,1.6-2.1,3.2-2.3,3.5c-0.5,0.9-0.5,1.9,0,2.5c0.6,0.7,1.7,0.5,2.5-0.4c1-1.1,4.3-6.3,4.5-7.1
		c0.1-0.5,0-0.8-0.5-1.2C89.1,60.3,88.5,60.7,86.2,64.2z"/>
	<path class="st2" d="M88,110c5.3-0.5,8.9-1.7,9.6-3.1c0.2-0.5,0.3-3.2,0.4-12.2l0.1-11.5l0.8-1.2c1.7-2.6,1.6-2.3,1.6-16.7
		c0-17.9,0-17.7-4-18.5c-1.1-0.2-3-0.5-4.2-0.7L90.2,46L90,44.2c-0.3-2-0.7-2.8-1.5-3.5c-0.6-0.5-2.4-1-3.7-1H84l-0.3-1.9
		c-1.4-9.4-8.5-17.7-17.2-20c-2.5-0.7-6.6-0.7-8.8-0.1c-2,0.6-3.9,1.4-4.6,2.1C52,21,52.5,23,54,23c0.3,0,1.3-0.4,2.3-0.8
		c3.8-1.8,8-1.6,12.4,0.5c4,1.9,7.4,5.3,9.5,9.4c1.2,2.3,2.3,5.8,2.2,7c-0.1,0.7-0.1,0.8-1.6,1c-3,0.5-3.7,1.3-3.9,4.1L74.8,46
		l-2.4,0.4c-3,0.5-6,1.3-6.6,1.9c-0.6,0.5-0.6,0.9-1.2,8.3c-0.9,12.2-1.3,23.7-0.9,25.7c0.1,0.5,0.7,1.6,1.3,2.4
		c1.9,2.5,1.7,1.8,1.7,9.5c-0.1,7.9,0.2,11.9,0.8,13c0.2,0.4,0.8,0.9,1.1,1.1c1.1,0.6,5.3,1.6,7.1,1.7c1.5,0,1.6,0,2.1-0.6
		c0.4-0.5,0.4-0.7,0.2-1.3c-0.3-0.8-0.7-1-4.2-1.8c-1.5-0.3-2.8-0.7-3-0.8c-0.3-0.2-0.4-1.5-0.4-9.4c0-5.5-0.1-9.4-0.3-9.9
		c-0.4-1.1-1-2.2-1.9-3.4c-0.9-1.2-1.3-2.6-1.1-4.4c0.1-0.8,0.1-0.8,1-0.8c6.7,0.4,10.3,0.6,18.6,0.7c5.4,0.1,9.8,0.1,9.8,0.2
		c0,0-0.5,0.9-1.1,2c-1.3,2.3-1.2,0.6-1.3,15.3c0,6-0.1,9.4-0.3,9.6c-0.4,0.4-3.5,0.9-7.5,1.2c-4.3,0.3-5,0.5-5.3,1.5
		c-0.2,0.6,0.1,1.5,0.6,1.9C82.2,110.3,84.6,110.3,88,110z M78.6,43.6c0.3-0.2,7.2-0.2,7.4,0.1c0.1,0.1,0.2,0.6,0.3,1.1l0.1,0.9
		l-4,0c-2.2,0-4.1,0-4.1-0.1C78,45.3,78.3,43.7,78.6,43.6z M68.3,52.4c0.1-1.9,0.1-2,3.7-2.5c5.1-0.8,15-0.7,21.4,0.3
		c3.8,0.6,3.5,0.3,3.5,2.2V54l-1.3-0.1C89.3,53.2,79.4,53,74,53.5c-1.5,0.1-3.5,0.3-4.3,0.4L68.3,54L68.3,52.4z M95.3,74.5
		c-2.9,0.3-27.6-0.1-27.9-0.4C67.3,74,68,57.7,68.1,57.5c0,0,1.3-0.2,2.9-0.4c5.3-0.5,19.9-0.3,25,0.5c1,0.2,1.1,0.2,1,1
		c0,0.4,0,4.2-0.1,8.3l0,7.5L95.3,74.5z"/>
	<path class="st2" d="M43.4,31.7c-2.2,5.9-3.5,14.3-3.5,21.7V57L39,57.1c-2.6,0.5-3.3,1.3-3.3,3.7v1.5l-2.2,0.2
		c-2.6,0.2-2.8,0.3-3.3,1.1c-0.6,1.2-1.3,7.5-1.6,14.3c-0.2,5,0.5,7.9,2.7,10.1c1.7,1.7,3.9,2.8,6.3,3.2h0
		c4.8,0.8,10.5-0.5,12.5-2.7c0.9-1,1.9-3.2,2.4-5.1c0.5-1.9,0.9-6,0.7-7.5c-0.2-1.9-1.2-2.8-2.7-2.2c-0.9,0.4-0.9,0.4-1.2,4.8
		c-0.1,1.9-0.4,3.8-0.5,4.3l-0.3,0.9l-0.2-2c-0.5-5.5-2.3-9.3-5.1-10.8c-1.1-0.6-1.5-0.7-2.9-0.7c-4.6,0-6.9,3.8-7,11.6
		c0,2.7-0.1,3.1-0.3,2.8c-0.7-0.9-0.9-2.3-0.9-6.7c0-2.4,0.2-6.1,0.3-8.2l0.3-3.8l1.8-0.2c1.9-0.2,12,0.3,13.7,0.6
		c1.8,0.3,2.8-0.3,2.8-1.7c0-0.9-0.9-1.7-2.2-1.9c-2.3-0.3-2.3-0.3-2.1-1.4c0.2-1.2-0.2-2.6-0.8-3.3c-0.3-0.3-0.9-0.6-1.5-0.8
		l-1-0.3v-3.3c0-7.8,1.1-15.3,3.2-21.4l0.9-2.5l-0.5-0.6C46,27.5,44.6,28.5,43.4,31.7z M38.9,74.5c0.7-0.7,0.9-0.8,1.8-0.7
		c2.6,0.3,4.3,4.8,4.1,10.8c-0.1,1.3-0.2,2.5-0.4,2.7c-0.3,0.3-5.1,0.5-5.8,0.2C36.3,86.4,36.5,76.9,38.9,74.5z M43.4,61.3
		c-0.1,1,0.1,0.9-2.5,0.8L39,62.1v-1.6h4.4L43.4,61.3z"/>
	<path class="st2" d="M49.9,70.7c1.3,1.3,3.4-0.3,2.5-1.9c-0.4-0.7-0.7-0.9-1.5-0.9C49.6,67.9,48.9,69.7,49.9,70.7z"/>
	<path class="st2" d="M79.3,62c-0.2,0.2-0.8,0.9-1.3,1.5c-2.2,2.9-2.5,3.8-1.4,4.6c0.7,0.6,0.8,0.6,1.6,0.3c0.6-0.2,2.8-3,3.5-4.4
		C82.5,62.4,80.6,60.8,79.3,62z"/>
</g>
<g class="st1">
	<path class="st2" d="M98.4,81.5c-1-2.5-1.9-4.7-1.9-4.8c0-0.1,0.6-0.3,1.4-0.4c1.6-0.1,2.4-0.5,3.2-1.4c0.7-0.8,0.9-1.4,0.7-2.8
		c-0.4-3-1.5-4.5-3.9-5.3c-0.8-0.2-1.8-0.4-2.3-0.4c-1.2,0-1.4-0.2-1.7-1.5c-0.5-2.2-1.8-3.8-3.7-4.7c-1.2-0.5-3.8-1-5.5-1
		c-0.8,0-1.4-0.1-1.4-0.2c0-0.3-0.6-4.3-0.9-5.3c-0.5-2.1-2-6.6-2.7-8c-0.9-1.7-2.5-3.8-3.9-5c-1.2-1-3.6-2.2-4.8-2.4
		c-0.4-0.1-0.8-0.2-0.8-0.2c0,0,0.2-0.7,0.4-1.4c1.2-3.5-0.6-7.6-4.2-9.2c-1-0.5-1.6-0.6-2.9-0.6c-1.4,0-1.8,0.1-3,0.7
		c-4.1,2-5.4,7-2.8,10.9c0.8,1.2,2.3,2.4,3.6,2.8c0.6,0.2,0.8,0.3,0.7,0.6C62,42,61.5,43.4,61,44.9c-0.5,1.5-1.1,3-1.4,3.2
		c-0.5,0.5-2.3,1.2-5.8,2.1c-3.3,0.9-4.6,1.6-5.1,2.8c-0.4,0.9,0.3,2,1.3,2c0.3,0,0.9-0.2,1.2-0.5c0.5-0.4,1.6-0.8,4.3-1.5
		c2-0.5,4.1-1.1,4.6-1.4c2.1-0.9,3-2.2,4.2-6.1c0.8-2.5,1.3-3.1,2.9-3.6c2.8-0.8,5.3-0.1,7.5,2.4c1.5,1.7,2.5,3.6,3.5,7
		c0.7,2.4,1.8,7.7,1.6,7.9c-0.1,0.1-1.2,0.2-2.6,0.2l-2.5,0.1l-0.1-1c-0.7-5-4.2-12-5.9-12c-0.9,0-1.4,0.5-1.7,2
		c-0.3,1.6-1.3,3.6-2.2,4.3c-1,0.8-3.4,2-6.1,2.8c-2,0.7-2.9,0.8-4.8,1c-4.3,0.3-8.2,0.9-9.6,1.7c-0.6,0.3-0.6,0.3-1.3-0.5
		c-1.5-2-3.9-3.2-6.3-3.2c-5.8,0-9.3,6.5-6.3,11.7c0.3,0.5,0.4,0.9,0.4,1c-0.1,0.1-0.4,0.1-0.8,0.1c-2.7,0-4.5,1.3-5,3.5
		c-0.3,1.5-0.1,3.3,0.5,4.8c0.4,0.9,0.7,1.2,1.4,1.5c0.5,0.2,1.4,0.5,1.9,0.5l1,0.1l-1.5,4.4c-1.9,5.6-4.2,13.8-4.4,15.3
		c-0.1,1.3,0.2,2.1,1.1,2.4c0.3,0.1,1.6,0.2,2.9,0.2c3.8,0,3.5,0.3,6-5.5c2.1-4.9,2.4-5.9,1.7-6.6c-0.5-0.6-1.8-0.5-2.4,0.1
		c-0.4,0.4-1.3,2.4-3.2,7l-0.7,1.7h-1.8l0.2-0.8c1.6-6.1,3.2-11.5,4.1-14.5l1.2-3.6l2.5-0.1c1.4-0.1,2.5-0.1,2.6-0.1
		s-0.2,0.5-0.6,1.1c-1,1.5-1.4,2.9-1.2,4.4c0.2,2,1.2,3.5,2.8,4.2c1.6,0.7,3.3,0.3,4.8-1.2c1.9-1.9,5.6-6.9,6.2-8.7l0.4-1l14.2-0.1
		c7.8,0,15.6,0,17.2,0.1l3,0.1l0.7,1.3c0.9,1.5,1.6,1.9,2.5,1.4c0.5-0.3,0.6-0.5,0.6-1.2c0-0.5-0.1-1-0.2-1.2
		c-0.2-0.3,0-0.4,2.1-0.4h2.2l1.3,3.2c0.7,1.8,2.2,5.6,3.2,8.5c1.1,2.9,2.1,5.7,2.4,6.2l0.4,1l-0.7-0.1c-0.6-0.1-0.8-0.2-1.1-0.9
		c-2.6-5-6.7-12.4-7-12.8c-0.6-0.8-1.6-0.9-2.3-0.3c-1,0.8-0.8,1.4,1.4,5.4c1.1,2,2.9,5.4,4,7.5C97,99,97,98.9,100.3,99
		c1.9,0,2.2,0,2.8-0.4c1-0.7,1.2-1.4,0.9-2.6C103.6,94.8,100.8,87.4,98.4,81.5z M65.7,37.9c-1,0.5-2.8,0.5-3.7,0
		c-3.3-2-2.7-6.9,1-7.6c1.7-0.3,3.7,0.8,4.4,2.6C68.2,34.7,67.4,37.1,65.7,37.9z M66.6,55.5c0.7-0.6,1.5-1.5,2-2.3l0.8-1.3l0.6,1.7
		c0.3,0.9,0.8,2.4,1,3.3c0.2,0.9,0.3,1.8,0.3,2.1c-0.1,0.4-0.1,0.4-0.7-0.1c-1.2-1-2.5-1.7-3.9-2l-1.3-0.3L66.6,55.5z M36.9,58.1
		c4.6,0,6.4,6.6,2.4,8.5c-2.5,1.2-5.7-0.4-6.3-3.4C32.3,60.4,34.1,58.1,36.9,58.1z M35.2,74.3c-3,0.1-5.8,0.1-6.1,0
		c-0.5-0.1-0.6-0.2-0.7-1.1c-0.2-1.2,0-2,0.4-2.2c0.5-0.2,5-0.5,9.2-0.6l3.9-0.1l0.1,0.6c0.2,0.9-0.3,2.8-0.8,3.2
		C40.9,74.2,39.5,74.2,35.2,74.3z M74.6,73.1H51.4l0.3-1.7c0.2-0.9,0.3-2.8,0.3-4.1c0-2.3,0-2.4-0.5-2.8c-0.7-0.5-1.4-0.5-2.1,0.1
		c-0.5,0.5-0.6,0.7-0.9,3.6c-0.3,3.3-0.5,4.6-1.2,7c-0.5,1.8-2.3,4.6-4.8,7.6c-1.5,1.7-2.2,2.1-2.7,1.2c-0.7-1.2-0.1-2.5,2.5-6.1
		c1.1-1.4,2.1-3,2.3-3.6c0.4-1.2,0.5-4.3,0.1-7.2c-0.1-0.9-0.2-2.5-0.1-3.5c0.1-1.7,0.2-1.9,0.7-2.2c1.3-0.8,5-1.1,12.9-1.4
		c7-0.2,7.9-0.1,9.8,1.5c0.8,0.6,1.7,1.2,2.2,1.4c1,0.4,3.4,0.5,9.6,0.1c6.4-0.4,8.4-0.1,9.7,1.3c0.3,0.3,0.6,0.9,0.7,1.3l0.2,0.7
		l-12,0.1c-7,0.1-14.1,0.2-17.1,0.4c-2.8,0.2-5.2,0.3-5.4,0.3c-0.5,0-1.1,0.8-1.1,1.5c0,0.3,0.2,0.8,0.5,1c0.4,0.4,0.8,0.4,6.6,0.3
		c3.4-0.1,12.3-0.1,20-0.1c14.8,0,15.1,0,15.8,1c0.4,0.7,0.6,2,0.3,2.2C98,73,87.4,73.1,74.6,73.1z"/>
</g>
<g class="st1">
	<path class="st2" d="M60.1,28.7c1.3-0.6,1.7-1.5,1.1-2.4c-1.2-1.6-4.2-0.4-5.6,2.3c-0.8,1.6-0.4,4.3,0.9,5.2c1,0.7,2.2,0.3,2.6-0.9
		c0.1-0.2,0-0.9-0.2-1.4C58.4,30.2,58.8,29.4,60.1,28.7z"/>
	<path class="st2" d="M58.3,48.1c-0.9-0.4-1.9,0.2-2.9,1.6c-1.2,1.7-1.1,4.9,0.3,6.2c0.8,0.8,1.8,0.7,2.5-0.2
		c0.5-0.6,0.5-0.7,0.1-1.9c-0.4-1.4-0.3-2.2,0.4-2.8C59.7,50,59.6,48.6,58.3,48.1z"/>
	<path class="st2" d="M55.9,102.1c0.7,0.3,1,0.3,1.6,0c0.9-0.5,1-1.3,0.4-3c-0.4-1.3-0.5-1.7-0.3-2.4c0.4-1.5-0.2-2.5-1.6-2.5
		c-1.2,0-2.2,2.3-1.8,4.3C54.5,100.1,55.3,101.8,55.9,102.1z"/>
	<path class="st2" d="M48.5,43.8c-0.4,0.9-1,1.6-1.2,1.7c-0.2,0.1-1,0.2-1.8,0.4c-2.3,0.5-3.7,1.1-4.6,2.1c-2.1,2.4-2,7.2,0.3,8.8
		c0.4,0.3,1.4,0.7,2.3,0.8c3.1,0.7,3.6,1,4.6,2.7c0.5,0.8,1.2,1.8,1.4,2.1c0.4,0.5,0.5,0.6,0.2,1c-0.2,0.2-0.5,1.1-0.8,2
		c-0.6,2-1.4,2.7-3.5,3.3c-2.4,0.7-3.3,1.3-4.1,2.3c-1.4,2-1.5,4.7-0.2,6.2c0.8,0.9,1.6,1.4,3.7,2.1c1.6,0.6,1.8,0.7,2.6,2.9
		c0.3,0.7,0.8,1.7,1.3,2.2l0.8,0.9l-0.4,0.7c-0.2,0.4-0.6,1.5-0.9,2.4c-0.3,0.9-0.6,1.9-0.9,2.1c-0.2,0.2-1.4,0.8-2.6,1.3
		c-2.7,1-3.6,1.9-4.1,3.6c-0.7,2.3-0.4,4.3,0.9,5.5c0.7,0.7,1.5,1,4.4,1.8c1.6,0.5,2.7,1.3,4.1,3.5c1.3,1.9,2.1,2.7,3.7,3.5
		c1.6,0.8,3.2,1.3,5.6,1.6c1.2,0.2,3.9,0.3,5.9,0.3c7.6,0,10.9-1.4,12.8-5.5c0.7-1.5,0.9-1.7,2-2.4c2-1.2,2.9-2.6,3.3-5.5
		c0.2-1.3-0.5-2.8-1.7-3.7c-0.5-0.4-1.1-0.8-1.3-1c-0.3-0.3-0.5-0.8-0.7-2.1c-0.3-2.8-1-4.2-2.9-6.1c-0.5-0.5-1.1-1.1-1.4-1.4
		c-0.5-0.5-1.1-0.5-4.4,0.1c-1,0.2-3.4,0.4-5.2,0.5c-2.8,0.1-3.9,0.1-6.7-0.4c-3.9-0.6-6.7-1.4-7.6-2.3c-0.4-0.3-0.6-0.7-0.6-0.8
		c0-0.6-1.1-3-1.8-3.7c-0.8-0.9-1.3-1.2-3.7-2c-1.2-0.4-1.4-0.6-1.5-1.1c-0.1-1.1,0.4-1.7,2.6-2.3c3.2-1,4.6-2.3,5.5-5.3
		c0.8-2.4,0.8-2.5,2.4-2c4.8,1.4,14,1.5,15.3,0.1c0.6-0.6,0.6-1.8,0-2.4C69.1,62,68.8,62,63.4,62c-5.5,0-5.7-0.1-7.7-0.7
		c-3-0.9-3.7-1.4-4.6-3c-1.3-2.3-3.2-3.6-6.2-4.1c-0.8-0.2-1.6-0.4-1.7-0.6C43,53.4,43,52.7,43,51.9c0.1-1.7,0.5-2,3.1-2.6
		c2.2-0.5,3.5-1.1,4.1-1.8c0.2-0.2,0.8-1.3,1.3-2.3c0.5-1,1.1-2,1.3-2.2c0.3-0.2,0.8-0.3,2.6,0c2.6,0.3,11.8,0.3,14.4,0
		c4.1-0.5,5.9-0.5,6.2-0.3c0.2,0.1,0.5,0.9,0.6,1.7c0.2,0.8,0.5,1.8,0.7,2.3c0.9,1.7,2.8,2.9,5.4,3.4c0.5,0.1,1,0.3,1.2,0.5
		c0.4,0.4,0.5,3.4,0,3.7c-0.2,0.1-1.1,0.6-2.1,1c-2.2,0.9-3.6,2.1-4.6,4c-0.4,0.8-0.9,1.5-1,1.5c-2.4,0.7-3.3,1.6-2.7,2.7
		c0.4,0.7,0.7,0.9,1.5,0.9c1,0,1.2,0.4,1.5,2.2c0.4,2.9,1.2,3.8,4.3,4.8c1.8,0.6,2.4,1.1,2.4,2.2c0,1.3-0.5,1.8-2.2,2.5
		c-2.7,1.1-3.6,2.1-4.1,4.3c-0.4,2.1,0.1,3.3,1.6,3.3c0.9,0,1.6-0.6,1.8-1.6c0.5-2.1,0.4-2,2.3-2.8c3-1.3,4.1-2.7,4.1-5.7
		c0-3-1.3-4.6-4.7-5.6c-1.2-0.3-1.9-0.7-2-0.9c-0.1-0.2-0.2-1-0.4-1.8c-0.2-0.8-0.4-1.6-0.5-1.8c-0.1-0.3-0.1-0.6,0.3-1.2
		c0.3-0.4,0.8-1.3,1.1-1.8c0.5-0.8,1-1.2,1.8-1.6c3.7-1.7,4.1-1.9,4.6-2.8c0.8-1.2,1.1-3.1,0.8-5c-0.4-2.8-1.5-4-4.6-4.8
		c-1.1-0.3-2.2-0.7-2.4-0.8c-0.2-0.2-0.6-1.1-0.8-2c-0.2-0.9-0.6-2.1-0.8-2.5l-0.5-0.9l0.8-1c0.8-1.1,1.3-2.4,1.8-4.5l0.3-1.2l2.2-1
		c2.7-1.3,3-1.7,3-4c0-1.8-0.6-3.4-1.5-4.3c-0.3-0.3-1.4-0.9-2.5-1.4c-1.1-0.5-2.1-1.2-2.3-1.5c-0.2-0.3-0.5-1.3-0.6-2.2
		c-0.2-1.9-0.6-2.5-1.7-2.5c-1.4,0-1.8,1.1-1.5,3.7c0.4,2.8,1.6,4.3,4.8,5.8c1.4,0.6,1.7,1.1,1.7,2.1c0,0.6-0.1,0.7-1.3,1.2
		c-2.4,0.9-3.8,2.4-4.1,4.7c-0.2,1.3-1.1,3.2-1.9,4.1c-0.6,0.7-0.8,0.7-4.3,1.1c-4.9,0.6-13.9,0.8-16.6,0.4c-1.8-0.3-2.2-0.4-2.9-1
		c-0.7-0.6-0.9-1-1.2-2.8c-0.2-1.1-0.6-2.3-0.8-2.6c-0.5-0.7-1.6-1.3-3.5-1.9c-1.9-0.5-2-0.7-1.9-2.2l0.1-1.3l1.5-0.5
		c2.4-0.9,3-1.6,3.6-4.6c0.2-1,0.5-2.1,0.7-2.4c0.4-0.6,0.4-0.6,2.9-0.4c1.4,0.1,3.3,0.3,4.1,0.4c2.4,0.4,9.8,0.4,12.1-0.1
		c2.4-0.4,2.8-0.6,3.2-1.5c0.2-0.6,0.2-0.8-0.1-1.4c-0.5-1-1.1-1.1-3.7-0.7c-2.8,0.4-8.9,0.4-12.5-0.1c-7.5-1-9.2-0.2-10.3,4.8
		l-0.5,2.3L44.6,24c-2.7,0.9-3.7,2.5-3.4,5.7c0.2,2.9,1.2,4.1,4.1,4.9c2.1,0.5,2.2,0.6,2.4,1.9c0.2,1.4,0.9,3.1,1.7,3.9
		c0.6,0.6,0.6,0.7,0.2,1.3C49.4,41.9,48.9,42.9,48.5,43.8z M50.8,90.5c0.6-2.2,1-3.2,1.4-3.5c0.3-0.2,0.8-0.2,2.4,0.2
		c5.5,1.3,11.3,1.5,16.7,0.6c2.6-0.4,2.6-0.4,3.8,1.3c0.5,0.7,0.7,1.3,0.8,2.8c0.3,2.7,1.1,4,3.1,5.2c0.6,0.4,0.6,0.5,0.5,1.2
		c-0.3,1.4-0.6,1.8-2,2.6c-1.6,0.9-2,1.5-2.8,3.3c-0.9,2.2-1.7,2.8-4.6,3.4c-1.9,0.4-7.5,0.4-10.2,0.1c-3.9-0.5-5.7-1.4-7.1-3.5
		c-1.1-1.8-3-3.6-4.4-4.3c-0.5-0.3-1.7-0.7-2.6-0.9c-0.9-0.3-1.8-0.5-1.9-0.6c-0.3-0.2-0.3-1.8,0.1-2.3c0.2-0.2,0.8-0.6,1.5-0.9
		C48.9,93.8,50.2,92.7,50.8,90.5z"/>
	<path class="st2" d="M57.3,70.4c-1-0.4-2,0.2-2.7,1.8c-0.6,1.2-0.6,1.5-0.5,3c0.1,1.8,0.5,2.5,1.5,2.9c0.6,0.2,1.2,0.1,1.7-0.5
		c0.3-0.4,0.4-0.7,0.3-1.9c-0.1-1.2,0-1.6,0.4-2.7C58.5,71.7,58.3,70.8,57.3,70.4z"/>
	<path class="st2" d="M29,62.5c-0.2,0.3-0.4,0.7-0.4,1c0,0.7,0.8,1.4,1.6,1.6c0.4,0.1,2.7,0.2,5,0.2c4,0,4.3-0.1,4.7-0.5
		c0.6-0.6,0.6-1.6,0-2.3C39.5,62,39.3,62,34.5,62C29.5,62,29.5,62,29,62.5z"/>
	<path class="st2" d="M101.8,63.6c-0.5-0.8-1.5-1-5.6-1.1c-1.9-0.1-4.5-0.2-5.7-0.3c-2.2-0.1-2.3-0.1-2.8,0.5
		c-0.7,0.7-0.8,1.5-0.2,2.3c0.4,0.5,0.7,0.6,4.4,0.8c5.6,0.4,8.7,0.4,9.4,0C101.9,65.3,102.2,64.3,101.8,63.6z"/>
	<path class="st2" d="M101.8,49.7c-0.4-0.3-0.8-0.4-1.3-0.3c-0.8,0.2-7.7,3.9-8.4,4.6c-0.6,0.6-0.7,1.7-0.1,2.3
		c0.2,0.2,0.7,0.4,1,0.4c0.8,0,8.5-4.1,9.1-4.8C102.7,51.1,102.6,50.3,101.8,49.7z"/>
	<path class="st2" d="M99,78.1c1.3,0,2-1.1,1.4-2.2c-0.4-0.9-7.6-5-8.7-5c-1.3,0-1.9,1.5-1.1,2.5c0.2,0.3,2,1.4,4,2.6
		C97.1,77.5,98.5,78.1,99,78.1z"/>
	<path class="st2" d="M27.4,48.3c-0.8-0.2-1.8,0.6-1.8,1.5c0,0.4,0.2,0.9,0.5,1.3c0.3,0.3,2.5,1.9,4.9,3.5c4.5,2.9,4.8,3.1,5.7,2.4
		c0.5-0.4,0.7-1.1,0.5-1.8C36.8,54.3,28.7,48.6,27.4,48.3z"/>
	<path class="st2" d="M26.6,78.3c0.6,0.3,0.9,0.3,1.6,0c0.9-0.3,6.8-4.6,7-5c0.4-1.2-0.3-2.3-1.5-2.3C33,71.1,27,75,26.2,76
		C25.5,76.9,25.7,77.8,26.6,78.3z"/>
</g>
<g class="st1">
	<path class="st2" d="M61.4,59.9c-0.7,0.7-0.8,1.6-0.3,2.2c0.9,1,2.8,0,2.8-1.3C64,59.3,62.5,58.8,61.4,59.9z"/>
	<path class="st2" d="M35,87.3c0,0.8,0.1,1,0.7,1.4c0.8,0.5,2-0.3,2-1.3c0-0.6-0.8-1.5-1.5-1.5C35.6,85.9,35,86.6,35,87.3z"/>
	<path class="st2" d="M20.7,85.5c0,1.1,1.2,3.1,3.4,5.5l2.1,2.4l-1.1,1.3c-2,2.4-2.6,3.8-2.4,5c0.2,1,2.1,3.1,3.5,3.8
		c1.9,1,2.8,0.7,5.4-1.6c0.9-0.8,1.8-1.5,1.8-1.5c0.1,0,1.2,1,2.4,2.1c2.5,2.3,3.2,2.8,4.2,2.8c1.6,0,4.8-2.6,4.8-3.8
		c0-0.8-0.5-1.4-1.3-1.6c-0.6-0.1-1.1,0.1-2.5,1.3l-0.8,0.7l-3.8-3.6c-7.2-6.7-12.4-12.2-12.4-13.1c0-0.1,0.9-1.1,2-2.2l2-2l2.5,2.5
		c2.7,2.6,3.2,2.9,4.1,2c1-1,0.7-1.4-3.5-5.9c-2.2-2.3-4-4.4-4.1-4.7c-0.1-0.4,0.1-0.8,0.7-1.5c1.4-1.7,3.6-3.9,3.9-3.9
		C32.6,70,58.6,96.2,58.6,97c0,0.3-3.5,4-4.3,4.5l-0.6,0.4l-2.9-2.7c-1.6-1.5-4.6-4.4-6.7-6.4c-3.5-3.4-3.8-3.7-4.5-3.7
		c-1,0-1.6,0.6-1.6,1.5c0,0.6,0.4,1,3,3.7c3.3,3.2,10.2,9.5,11.7,10.5c1.2,0.9,1.7,0.8,3.5-0.8c2-1.8,5.1-5.4,5.5-6.4
		c0.3-0.8,0.3-0.9,0-1.6c-0.4-0.8-3.8-4.8-8-9.2l-2.8-3l2-2c1.1-1.1,5.4-5.3,9.6-9.3c9.5-9,16.2-15.6,20-19.7l3-3.2l2.3,2.3
		c1.3,1.3,3.2,3.1,4.2,4c1,0.9,2.4,2.3,3.2,3c0.8,0.7,1.6,1.4,1.9,1.5c0.9,0.5,1.9-0.2,5.5-3.9c3.2-3.2,3.5-3.5,3.5-4.2
		c0-0.8-0.2-1.1-3.4-4.6l-1.4-1.5l2.7-2.7c2.2-2.2,2.8-2.9,3-3.6c0.5-1.6,0.2-2.2-3.1-5.9l-1-1.2l1.5-1.8c2.6-3.1,2.9-4,1.8-5.7
		c-1-1.6-3.2-3.7-4.1-3.9c-1-0.2-2.5,0.6-4.6,2.4l-1.7,1.5l-1.4-1.5c-1.2-1.3-1.5-1.5-2.1-1.5c-1.3,0-2,1.3-1.5,2.4
		c0.4,0.8,6.6,7.7,10.2,11.3c1.5,1.5,2.7,2.9,2.7,3.1c0,0.3-4.4,4.9-4.7,4.8c-0.1,0-1.2-1.2-2.6-2.7c-1.3-1.5-4.7-4.9-7.4-7.7
		l-4.9-5l2.1-2.2c1.9-2,2.1-2.3,2.1-2.9c-0.1-0.9-0.9-1.5-1.8-1.3c-0.4,0.1-1.4,1-2.7,2.3c-1.2,1.2-2.1,2-2.2,1.9
		c-0.1-0.1-1.1-1.1-2.3-2.1c-2.5-2.2-3.3-2.6-4.4-2c-1.1,0.6-2.8,2.1-5,4.5c-1.8,1.9-2,2.3-2,3c0,0.9,0.2,1.3,1.9,3.2
		c1.9,2.3,8,9,8.4,9.3c0.3,0.2,0.1,0.5-1.8,2.3c-8.2,7.8-11.9,11.4-12.1,12c-0.5,1.1,0.6,2.4,1.8,2.2c0.3-0.1,3-2.5,7.5-7l7-6.9
		l1.4,1.4l1.4,1.4l-6.9,6.9c-3.8,3.8-9.7,9.4-13,12.6c-3.3,3.2-8.1,7.7-10.5,10.1l-4.4,4.4l-1.2-1.2c-0.6-0.6-1.2-1.3-1.1-1.4
		c0-0.1,2.5-2.8,5.5-5.9c4.7-4.8,5.5-5.7,5.5-6.3c0-1.1-1.1-1.8-2-1.3c-0.3,0.2-3,2.7-6.1,5.7l-5.6,5.4l-3.4-3.3
		c-4.8-4.7-7.6-7.2-8.2-7.3c-1-0.3-2.2,0.5-4.9,3.2c-2.8,2.7-3.9,4.4-3.9,5.7c0,0.8,0.5,1.7,1.7,3.2l0.8,0.9l-2.2,2.2
		C21.4,83.3,20.7,84.3,20.7,85.5z M27.9,96.6l0.8-0.9L30,97l1.3,1.3L30.4,99c-0.5,0.4-1.1,1-1.5,1.3c-0.4,0.3-0.7,0.6-0.7,0.6
		c-0.2,0-1.4-0.8-1.8-1.2c-0.4-0.4-0.4-0.5,0.2-1.3C26.9,97.9,27.5,97.1,27.9,96.6z M100.9,30.6c-0.1,0.1-1.2-0.9-2.2-2.1
		c-0.4-0.5-0.4-0.5,0-0.9c0.2-0.2,1-0.9,1.6-1.5l1.2-1.1l0.9,0.8c1.4,1.3,1.4,1.3-0.1,3.1C101.6,29.7,100.9,30.5,100.9,30.6z
		 M79.7,38.9c-3.2-3.5-8-8.9-8.1-9.2c-0.1-0.2,2.3-2.8,3.7-3.8l0.8-0.7l2.7,2.6c7,7,23.6,24.4,23.5,24.7c0,0.1-1,1.2-2.1,2.4
		c-1.2,1.2-2.2,2.2-2.3,2.2C97.6,57.2,83.1,42.4,79.7,38.9z"/>
</g>
<g>
	<path class="st3" d="M78.7,46.8c-0.9,0-2.7,1-4,2.2c-1.2,1.1-7,7.6-12.2,13.8c-1.5,1.7-3.1,3.6-3.6,4.2L58,68L56,65.6
		c-1.7-2-2.2-2.4-2.8-2.4c-0.9,0-1.8,0.9-1.8,1.7c0,0.7,0.8,2,2.8,4.4c2.2,2.6,2.8,3.1,4,3.1c0.8,0,1.2-0.3,3.2-2.3
		c1.2-1.3,5.3-5.8,9.1-10.2c3.7-4.3,7.2-8.1,7.6-8.4c0.6-0.4,0.9-0.5,1.3-0.3c0.8,0.4,1.6,1.9,1.6,2.9c0,1.4-2.5,4.3-13.1,15.2
		c-7,7.2-8.6,8.6-9.6,8.6c-1,0-3.8-1.9-6.7-4.7c-3.6-3.5-4.5-5.5-3.5-7.8c0.9-2.1-1.4-3.9-3.1-2.4c-1.9,1.7-2.1,4.8-0.4,8.1
		c2,4,8.9,10,12.6,10.9c2.1,0.5,4-0.3,6.8-2.9c3.1-2.9,15.7-16,17.9-18.7c3.7-4.5,4.2-6.2,2.6-9.4C83.1,48.6,80.8,46.8,78.7,46.8z"
		/>
	<path class="st3" d="M75.2,31.4c-19.6-6.2-40.2,7-43.6,27.8c-0.7,4.2-0.4,9.7,0.6,13.9C35.6,86.3,46.5,95.8,60,97.6
		c2.3,0.3,7.1,0.1,9.6-0.4C83.3,94.6,94,84,97.1,70.1c0.5-2.3,0.6-3.5,0.6-7.1c0-4.7-0.3-6.9-1.7-10.9
		C92.7,42.3,84.8,34.4,75.2,31.4z M91,75.4C86.7,85.2,77.5,92,67,93.3c-5.6,0.7-10.7-0.2-15.9-2.7C45.3,87.7,40.9,83.1,38,77
		c-1.6-3.5-2.4-6.7-2.5-11.1c-0.2-4.6,0.2-7.2,1.4-10.9c3.3-10,11.2-17.5,21.3-20.1c3.1-0.8,9-1,12.2-0.4C78.9,36.1,86,41.3,90.1,49
		C94.4,56.9,94.7,66.9,91,75.4z"/>
	<path class="st3" d="M91.4,37.3c0.3,0.1,1.4-0.7,1.6-1.2c0.6-1.3-1.1-3.5-2.6-3.5c-0.8,0-1.8,1-1.8,1.9c0,0.6,1.5,2.3,2.2,2.6
		C91.1,37.2,91.4,37.3,91.4,37.3z"/>
	<path class="st3" d="M82.6,26.5c-6.9-3.3-14.5-4.7-21.6-4c-9.6,1-18.3,5-25.2,11.6C22.4,47,18.8,67,27,83.3
		c5.9,11.7,16.7,19.7,29.7,22.1c3.2,0.6,11.9,0.3,15.1-0.4c8.5-2,14.9-5.5,21-11.6c6.4-6.4,10.1-13.4,11.9-22.3
		c0.5-2.4,0.6-3.9,0.6-7.8c0-5.4-0.5-8.6-2.1-13.2c-1.4-4.1-4-9.2-5.2-10.2c-0.8-0.7-2.2-0.6-2.9,0.2c-0.7,0.9-0.7,1.6,0.3,3.1
		c2.2,3.5,4.1,8.1,5.1,12.7c0.8,3.6,0.8,10.7,0.1,14.3c-1.9,9.5-6.8,17.6-14,23.3c-7,5.5-14.5,8.1-23.2,8.1c-6.3,0-11.4-1.2-16.9-4
		c-9.5-4.9-16.4-14-18.8-24.8c-0.7-3.1-0.8-10.7-0.3-14.1c2.5-15,13.7-27.3,28.4-31c8.8-2.2,17.6-1.2,26,3.1
		c3.2,1.6,3.7,1.7,4.8,0.8c0.3-0.3,0.5-0.8,0.5-1.4C87,28.9,86.2,28.2,82.6,26.5z"/>
</g>
</svg>
