<?xml version="1.0" encoding="utf-8"?>
<!-- Generator: Adobe Illustrator 28.0.0, SVG Export Plug-In . SVG Version: 6.00 Build 0)  -->
<svg version="1.1" xmlns="http://www.w3.org/2000/svg" xmlns:xlink="http://www.w3.org/1999/xlink" x="0px" y="0px"
	 viewBox="0 0 530 530" style="enable-background:new 0 0 530 530;" xml:space="preserve">
<style type="text/css">
	.st0{fill:#FFFFFF;}
	.st1{fill:#00AE41;}
</style>
<g id="Layer_1">
	<g>
		<g>
			<path class="st0" d="M516.7,91.2l-62.1-74c-8-9.5-22.2-10.7-31.7-2.8l-32.6,27.3c-1.5,1.3-2.5,3.1-2.7,5.1c-0.2,2,0.4,4,1.7,5.5
				l3.6,4.3L375.8,73H267c-7.3,0-14.1,2.8-19.3,7.9L140.4,187c-9.3,9.2-9.7,24-1,33.7c4.4,4.9,10.5,7.8,17.1,8.1c0.4,0,0.8,0,1.2,0
				c6.2,0,12.1-2.3,16.6-6.6l62.7-58.4c4.5,9.3,14,15.7,25,15.7h44.8l6.9,9c7.2,9.4,18.5,15,30.3,15H373c8.8,0,17.4-3.1,24.2-8.7
				l66.2-54.4l7.3,8.7c1.5,1.8,3.6,2.7,5.7,2.7c1.7,0,3.4-0.6,4.8-1.8l32.6-27.3C523.4,114.9,524.7,100.7,516.7,91.2z M387.7,183.4
				c-4.1,3.4-9.3,5.2-14.7,5.2h-29.2c-7.2,0-14-3.4-18.4-9.1l-9.1-12c-1.4-1.9-3.6-2.9-6-2.9h-48.5c-7,0-12.7-5.7-12.7-12.7v-2.7
				c0-1.6,1.3-2.9,2.9-2.9h87.8c4.1,0,7.5-3.4,7.5-7.5s-3.4-7.5-7.5-7.5h-87.8c-8.7,0-15.9,6.2-17.6,14.3L164,211.3
				c-1.9,1.7-4.3,2.6-6.9,2.5c-2.6-0.1-4.9-1.2-6.6-3.1c-3.4-3.8-3.2-9.5,0.4-13l107.3-106c2.4-2.3,5.5-3.6,8.8-3.6h111.9
				c1.9,0,3.8-0.7,5.2-2.1l18.6-17.8l51.2,61L387.7,183.4z M504.3,111.4l-26.8,22.5l-71.7-85.5l26.8-22.5c3.2-2.7,7.9-2.2,10.6,0.9
				l62.1,74C507.9,104,507.4,108.8,504.3,111.4z"/>
			<path class="st0" d="M439.7,44.1c-2.6-3.2-7.4-3.7-10.6-1c-3.2,2.6-3.7,7.4-1,10.6l7.3,8.9c1.5,1.8,3.6,2.7,5.8,2.7
				c1.7,0,3.4-0.6,4.8-1.7c3.2-2.6,3.7-7.4,1-10.6L439.7,44.1z"/>
			<path class="st0" d="M370.5,131.3h-7.6c-4.1,0-7.5,3.4-7.5,7.5s3.4,7.5,7.5,7.5h7.6c4.1,0,7.5-3.4,7.5-7.5
				S374.7,131.3,370.5,131.3z"/>
			<path class="st0" d="M266,197.7c-37.2,0-67.5,30.3-67.5,67.5s30.3,67.5,67.5,67.5s67.5-30.3,67.5-67.5S303.2,197.7,266,197.7z
				 M266,317.7c-28.9,0-52.5-23.6-52.5-52.5s23.6-52.5,52.5-52.5s52.5,23.6,52.5,52.5S294.9,317.7,266,317.7z"/>
			<path class="st0" d="M280.6,246.3l-21.8,21.8l-7.6-7.6c-2.9-2.9-7.7-2.9-10.6,0c-2.9,2.9-2.9,7.7,0,10.6l12.9,12.9
				c1.5,1.5,3.4,2.2,5.3,2.2s3.8-0.7,5.3-2.2l27.1-27.1c2.9-2.9,2.9-7.7,0-10.6C288.3,243.4,283.6,243.4,280.6,246.3z"/>
		</g>
		<g>
			<path class="st1" d="M18,407.5c-9.5,8-10.7,22.2-2.8,31.7l62.1,74c8,9.5,22.2,10.7,31.7,2.8l26.8-22.5L44.8,385L18,407.5z
				 M86,466.9c1.4-1.1,3.1-1.7,4.8-1.7c2.2,0,4.3,0.9,5.8,2.7l7.3,8.9c2.6,3.2,2.2,7.9-1,10.6c-3.2,2.6-7.9,2.2-10.6-1l-7.3-8.9
				C82.3,474.2,82.8,469.5,86,466.9z"/>
			<path class="st1" d="M390.7,307.9c-4.5-4.1-10.3-6.3-16.4-6.3c0,0-0.1,0-0.1,0c-6.2,0-12.1,2.3-16.6,6.6l-60,55.8v17.2
				c0,9.9-8,17.9-17.9,17.9h-87.5c-4.1,0-7.7-3.2-7.8-7.3c-0.1-4.2,3.3-7.7,7.5-7.7h87.8c1.6,0,2.9-1.3,2.9-2.9v-10.4
				c0-11-9-20-20-20h-37.5l-6.9-9c-7.2-9.4-18.4-15-30.3-15h-29.2c-8.8,0-17.4,3.1-24.2,8.7l-66.2,54.4l70.5,84l17.1-16.4h108.8
				c7.3,0,14.1-2.8,19.3-7.9l107.3-106C401.4,333.7,401.3,317.5,390.7,307.9z M169,399.1h-7.6c-4.1,0-7.5-3.4-7.5-7.5
				s3.4-7.5,7.5-7.5h7.6c4.1,0,7.5,3.4,7.5,7.5S173.2,399.1,169,399.1z"/>
		</g>
	</g>
</g>
<g id="Layer_2">
</g>
</svg>
