<?xml version="1.0" encoding="utf-8"?>
<!-- Generator: Adobe Illustrator 28.0.0, SVG Export Plug-In . SVG Version: 6.00 Build 0)  -->
<svg version="1.1" xmlns="http://www.w3.org/2000/svg" xmlns:xlink="http://www.w3.org/1999/xlink" x="0px" y="0px"
	 viewBox="0 0 530 530" style="enable-background:new 0 0 530 530;" xml:space="preserve">
<style type="text/css">
	.st0{display:none;}
	.st1{display:inline;}
	.st2{fill:#FFFFFF;}
	.st3{fill:#00AE41;}
</style>
<g id="Layer_1" class="st0">
	<g class="st1">
		<g>
			<path class="st2" d="M516.7,91.2l-62.1-74c-8-9.5-22.2-10.7-31.7-2.8l-32.6,27.3c-1.5,1.3-2.5,3.1-2.7,5.1c-0.2,2,0.4,4,1.7,5.5
				l3.6,4.3L375.8,73H267c-7.3,0-14.1,2.8-19.3,7.9L140.4,187c-9.3,9.2-9.7,24-1,33.7c4.4,4.9,10.5,7.8,17.1,8.1c0.4,0,0.8,0,1.2,0
				c6.2,0,12.1-2.3,16.6-6.6l62.7-58.4c4.5,9.3,14,15.7,25,15.7h44.8l6.9,9c7.2,9.4,18.5,15,30.3,15H373c8.8,0,17.4-3.1,24.2-8.7
				l66.2-54.4l7.3,8.7c1.5,1.8,3.6,2.7,5.7,2.7c1.7,0,3.4-0.6,4.8-1.8l32.6-27.3C523.4,114.9,524.7,100.7,516.7,91.2z M387.7,183.4
				c-4.1,3.4-9.3,5.2-14.7,5.2h-29.2c-7.2,0-14-3.4-18.4-9.1l-9.1-12c-1.4-1.9-3.6-2.9-6-2.9h-48.5c-7,0-12.7-5.7-12.7-12.7v-2.7
				c0-1.6,1.3-2.9,2.9-2.9h87.8c4.1,0,7.5-3.4,7.5-7.5s-3.4-7.5-7.5-7.5h-87.8c-8.7,0-15.9,6.2-17.6,14.3L164,211.3
				c-1.9,1.7-4.3,2.6-6.9,2.5c-2.6-0.1-4.9-1.2-6.6-3.1c-3.4-3.8-3.2-9.5,0.4-13l107.3-106c2.4-2.3,5.5-3.6,8.8-3.6h111.9
				c1.9,0,3.8-0.7,5.2-2.1l18.6-17.8l51.2,61L387.7,183.4z M504.3,111.4l-26.8,22.5l-71.7-85.5l26.8-22.5c3.2-2.7,7.9-2.2,10.6,0.9
				l62.1,74C507.9,104,507.4,108.8,504.3,111.4z"/>
			<path class="st2" d="M439.7,44.1c-2.6-3.2-7.4-3.7-10.6-1c-3.2,2.6-3.7,7.4-1,10.6l7.3,8.9c1.5,1.8,3.6,2.7,5.8,2.7
				c1.7,0,3.4-0.6,4.8-1.7c3.2-2.6,3.7-7.4,1-10.6L439.7,44.1z"/>
			<path class="st2" d="M370.5,131.3h-7.6c-4.1,0-7.5,3.4-7.5,7.5s3.4,7.5,7.5,7.5h7.6c4.1,0,7.5-3.4,7.5-7.5
				S374.7,131.3,370.5,131.3z"/>
			<path class="st2" d="M266,197.7c-37.2,0-67.5,30.3-67.5,67.5s30.3,67.5,67.5,67.5s67.5-30.3,67.5-67.5S303.2,197.7,266,197.7z
				 M266,317.7c-28.9,0-52.5-23.6-52.5-52.5s23.6-52.5,52.5-52.5s52.5,23.6,52.5,52.5S294.9,317.7,266,317.7z"/>
			<path class="st2" d="M280.6,246.3l-21.8,21.8l-7.6-7.6c-2.9-2.9-7.7-2.9-10.6,0c-2.9,2.9-2.9,7.7,0,10.6l12.9,12.9
				c1.5,1.5,3.4,2.2,5.3,2.2s3.8-0.7,5.3-2.2l27.1-27.1c2.9-2.9,2.9-7.7,0-10.6C288.3,243.4,283.6,243.4,280.6,246.3z"/>
		</g>
		<g>
			<path class="st3" d="M18,407.5c-9.5,8-10.7,22.2-2.8,31.7l62.1,74c8,9.5,22.2,10.7,31.7,2.8l26.8-22.5L44.8,385L18,407.5z
				 M86,466.9c1.4-1.1,3.1-1.7,4.8-1.7c2.2,0,4.3,0.9,5.8,2.7l7.3,8.9c2.6,3.2,2.2,7.9-1,10.6c-3.2,2.6-7.9,2.2-10.6-1l-7.3-8.9
				C82.3,474.2,82.8,469.5,86,466.9z"/>
			<path class="st3" d="M390.7,307.9c-4.5-4.1-10.3-6.3-16.4-6.3c0,0-0.1,0-0.1,0c-6.2,0-12.1,2.3-16.6,6.6l-60,55.8v17.2
				c0,9.9-8,17.9-17.9,17.9h-87.5c-4.1,0-7.7-3.2-7.8-7.3c-0.1-4.2,3.3-7.7,7.5-7.7h87.8c1.6,0,2.9-1.3,2.9-2.9v-10.4
				c0-11-9-20-20-20h-37.5l-6.9-9c-7.2-9.4-18.4-15-30.3-15h-29.2c-8.8,0-17.4,3.1-24.2,8.7l-66.2,54.4l70.5,84l17.1-16.4h108.8
				c7.3,0,14.1-2.8,19.3-7.9l107.3-106C401.4,333.7,401.3,317.5,390.7,307.9z M169,399.1h-7.6c-4.1,0-7.5-3.4-7.5-7.5
				s3.4-7.5,7.5-7.5h7.6c4.1,0,7.5,3.4,7.5,7.5S173.2,399.1,169,399.1z"/>
		</g>
	</g>
</g>
<g id="Layer_2" class="st0">
	<g class="st1">
		<g>
			<path class="st2" d="M103.7,231.9c-11.9,0.7-21.2,10.5-21.2,22.5V276c0,11.9,9.3,21.8,21.2,22.5l28.3,1.6
				c3.2,12.1,7.9,23.7,14.3,34.5l-18.8,21.1c-7.9,8.9-7.5,22.5,0.9,30.9l15.3,15.3c8.4,8.4,22,8.8,30.9,0.9l21.1-18.8
				c10.8,6.3,22.4,11.1,34.5,14.3l1.6,28.3c0.7,11.9,10.5,21.2,22.5,21.2h21.7c11.9,0,21.8-9.3,22.5-21.2l1.6-28.3
				c12.1-3.2,23.7-7.9,34.5-14.3l21.1,18.8c8.9,7.9,22.5,7.5,30.9-0.9l15.3-15.3c8.4-8.4,8.8-22,0.9-30.9l-18.8-21.1
				c6.3-10.8,11.1-22.4,14.3-34.5l28.3-1.6c11.9-0.7,21.2-10.5,21.2-22.5v-21.7c0-11.9-9.3-21.8-21.2-22.5l-28.3-1.6
				c-3.2-12.1-7.9-23.7-14.3-34.5l18.8-21.1c7.9-8.9,7.5-22.5-0.9-30.9l-15.3-15.3c-8.4-8.4-22-8.8-30.9-0.9l-21.1,18.8
				c-10.8-6.3-22.4-11.1-34.5-14.3l-1.6-28.3c-0.7-11.9-10.5-21.2-22.5-21.2h-21.7c-11.9,0-21.8,9.3-22.5,21.2l-1.6,28.3
				c-12.1,3.2-23.7,7.9-34.5,14.3l-21.1-18.8c-8.9-7.9-22.5-7.5-30.9,0.9l-15.3,15.3c-8.4,8.4-8.8,22-0.9,30.9l18.8,21.1
				c-6.3,10.8-11.1,22.4-14.3,34.5L103.7,231.9z M145.2,239c3.1-14.3,8.7-27.7,16.6-40c1.8-2.8,1.5-6.5-0.7-9l-22.6-25.3
				c-2.6-3-2.5-7.5,0.3-10.3l15.3-15.3c2.8-2.8,7.3-2.9,10.3-0.3l25.3,22.6c2.5,2.2,6.2,2.5,9,0.7c12.3-7.9,25.7-13.5,40-16.6
				c3.3-0.7,5.7-3.5,5.9-6.9l1.9-33.8c0.2-4,3.5-7.1,7.5-7.1h21.7c4,0,7.3,3.1,7.5,7.1l1.9,33.8c0.2,3.4,2.6,6.2,5.9,6.9
				c14.3,3.1,27.7,8.7,40,16.6c2.8,1.8,6.5,1.5,9-0.7l25.3-22.6c3-2.6,7.5-2.5,10.3,0.3l15.3,15.3c2.8,2.8,2.9,7.3,0.3,10.3
				L368.8,190c-2.2,2.5-2.5,6.2-0.7,9c7.9,12.3,13.5,25.7,16.6,40c0.7,3.3,3.5,5.7,6.9,5.9l33.8,1.9c4,0.2,7.1,3.5,7.1,7.5V276
				c0,4-3.1,7.3-7.1,7.5l-33.8,1.9c-3.4,0.2-6.2,2.6-6.9,5.9c-3.1,14.3-8.7,27.7-16.6,40c-1.8,2.8-1.5,6.5,0.7,9l22.6,25.3
				c2.6,3,2.5,7.5-0.3,10.3l-15.3,15.3c-2.8,2.8-7.3,2.9-10.3,0.3L340.1,369c-2.5-2.2-6.2-2.5-9-0.7c-12.3,7.9-25.7,13.5-40,16.6
				c-3.3,0.7-5.7,3.5-5.9,6.9l-1.9,33.8c-0.2,4-3.5,7.1-7.5,7.1h-21.7c-4,0-7.3-3.1-7.5-7.1l-1.9-33.8c-0.2-3.4-2.6-6.2-5.9-6.9
				c-14.3-3.1-27.7-8.7-40-16.6c-1.2-0.8-2.7-1.2-4.1-1.2c-1.8,0-3.6,0.6-5,1.9l-25.3,22.6c-3,2.6-7.5,2.5-10.3-0.3L138.8,376
				c-2.8-2.8-2.9-7.3-0.3-10.3l22.6-25.3c2.2-2.5,2.5-6.2,0.7-9c-7.9-12.3-13.5-25.7-16.6-40c-0.7-3.3-3.5-5.7-6.9-5.9l-33.8-1.9
				c-4-0.2-7.1-3.5-7.1-7.5v-21.7c0-4,3.1-7.3,7.1-7.5l33.8-1.9C141.7,244.8,144.5,242.3,145.2,239z"/>
			<path class="st2" d="M494.9,297.7c-4.1,0-7.5,3.4-7.5,7.5v18.5c0,100.6-81.9,182.5-182.5,182.5h-80
				c-100.6,0-182.5-81.9-182.5-182.5v-41.9l5.7,5.7c1.5,1.5,3.4,2.2,5.3,2.2s3.8-0.7,5.3-2.2c2.9-2.9,2.9-7.7,0-10.6l-18.5-18.5
				c-2.9-2.9-7.7-2.9-10.6,0l-18.5,18.5c-2.9,2.9-2.9,7.7,0,10.6c2.9,2.9,7.7,2.9,10.6,0l5.7-5.7v41.9
				c0,108.9,88.6,197.5,197.5,197.5h80c108.9,0,197.5-88.6,197.5-197.5v-18.5C502.4,301.1,499.1,297.7,494.9,297.7z"/>
			<path class="st2" d="M518.7,242.9c-2.9-2.9-7.7-2.9-10.6,0l-5.7,5.7v-41.9c0-108.9-88.6-197.5-197.5-197.5h-80
				C116,9.2,27.4,97.8,27.4,206.7v18.5c0,4.1,3.4,7.5,7.5,7.5s7.5-3.4,7.5-7.5v-18.5c0-100.6,81.9-182.5,182.5-182.5h80
				c100.6,0,182.5,81.9,182.5,182.5v41.9l-5.7-5.7c-2.9-2.9-7.7-2.9-10.6,0c-2.9,2.9-2.9,7.7,0,10.6l18.5,18.5
				c1.5,1.5,3.4,2.2,5.3,2.2s3.8-0.7,5.3-2.2l18.5-18.5C521.7,250.6,521.7,245.8,518.7,242.9z"/>
		</g>
		<g>
			<path class="st3" d="M277.4,285.2h-25c-23.4,0-42.5,19.1-42.5,42.5v29.8c16.1,9.6,34.9,15.2,55,15.2s38.9-5.5,55-15.2v-29.8
				C319.9,304.3,300.9,285.2,277.4,285.2z"/>
			<circle class="st3" cx="264.9" cy="246.4" r="23.8"/>
			<path class="st3" d="M264.9,157.7c-59.3,0-107.5,48.2-107.5,107.5c0,32.6,14.6,61.8,37.5,81.5v-19c0-26.1,17.5-48.2,41.4-55.2
				c-6.3-6.9-10.1-16-10.1-26.1c0-21.4,17.4-38.8,38.8-38.8s38.8,17.4,38.8,38.8c0,10-3.8,19.2-10.1,26.1
				c23.9,7,41.4,29.1,41.4,55.2v19c22.9-19.7,37.5-49,37.5-81.5C372.4,205.9,324.2,157.7,264.9,157.7z"/>
		</g>
	</g>
</g>
<g id="Layer_3">
	<g>
		<g>
			<path class="st2" d="M81.4,351.2c4.1,0,7.5-3.4,7.5-7.5v-22c0-4.1,3.4-7.5,7.5-7.5h161v29.5c0,4.1,3.4,7.5,7.5,7.5
				s7.5-3.4,7.5-7.5v-29.5h161c4.1,0,7.5,3.4,7.5,7.5v22c0,4.1,3.4,7.5,7.5,7.5s7.5-3.4,7.5-7.5v-22c0-12.4-10.1-22.5-22.5-22.5
				h-161v-52.5c0-4.1-3.4-7.5-7.5-7.5s-7.5,3.4-7.5,7.5v52.5h-161c-12.4,0-22.5,10.1-22.5,22.5v22C73.9,347.8,77.3,351.2,81.4,351.2
				z"/>
			<path class="st2" d="M117,425.5c1.2-3.7,1.9-7.7,1.9-11.8v-20c0-15.2-12.3-27.5-27.5-27.5h-20c-15.2,0-27.5,12.3-27.5,27.5v20
				c0,4.1,0.7,8.1,1.9,11.8c-22.7,12.8-36.9,36.8-36.9,63.2v25c0,4.1,3.4,7.5,7.5,7.5h130c4.1,0,7.5-3.4,7.5-7.5v-25
				C153.9,462.3,139.7,438.3,117,425.5z M58.9,393.7c0-6.9,5.6-12.5,12.5-12.5h20c6.9,0,12.5,5.6,12.5,12.5v20
				c0,12.4-10.1,22.5-22.5,22.5s-22.5-10.1-22.5-22.5V393.7z M138.9,506.2h-15v-12.5c0-4.1-3.4-7.5-7.5-7.5s-7.5,3.4-7.5,7.5v12.5
				h-55v-12.5c0-4.1-3.4-7.5-7.5-7.5s-7.5,3.4-7.5,7.5v12.5h-15v-17.5c0-21,11.4-40.1,29.4-50.2c6.9,7.8,16.9,12.7,28.1,12.7
				s21.2-4.9,28.1-12.7c18,10.1,29.4,29.2,29.4,50.2V506.2z"/>
			<path class="st2" d="M300.5,425.5c1.2-3.7,1.9-7.7,1.9-11.8v-20c0-15.2-12.3-27.5-27.5-27.5h-20c-15.2,0-27.5,12.3-27.5,27.5v20
				c0,4.1,0.7,8.1,1.9,11.8c-22.7,12.8-36.9,36.8-36.9,63.2v25c0,4.1,3.4,7.5,7.5,7.5h130c4.1,0,7.5-3.4,7.5-7.5v-25
				C337.4,462.3,323.2,438.3,300.5,425.5z M242.4,393.7c0-6.9,5.6-12.5,12.5-12.5h20c6.9,0,12.5,5.6,12.5,12.5v20
				c0,12.4-10.1,22.5-22.5,22.5s-22.5-10.1-22.5-22.5V393.7z M322.4,506.2h-15v-12.5c0-4.1-3.4-7.5-7.5-7.5s-7.5,3.4-7.5,7.5v12.5
				h-55v-12.5c0-4.1-3.4-7.5-7.5-7.5s-7.5,3.4-7.5,7.5v12.5h-15v-17.5c0-21,11.4-40.1,29.4-50.2c6.9,7.8,16.9,12.7,28.1,12.7
				s21.2-4.9,28.1-12.7c18,10.1,29.4,29.2,29.4,50.2V506.2z"/>
			<path class="st2" d="M484,425.5c1.2-3.7,1.9-7.7,1.9-11.8v-20c0-15.2-12.3-27.5-27.5-27.5h-20c-15.2,0-27.5,12.3-27.5,27.5v20
				c0,4.1,0.7,8.1,1.9,11.8c-22.7,12.8-36.9,36.8-36.9,63.2v25c0,4.1,3.4,7.5,7.5,7.5h130c4.1,0,7.5-3.4,7.5-7.5v-25
				C520.9,462.3,506.7,438.3,484,425.5z M425.9,393.7c0-6.9,5.6-12.5,12.5-12.5h20c6.9,0,12.5,5.6,12.5,12.5v20
				c0,12.4-10.1,22.5-22.5,22.5s-22.5-10.1-22.5-22.5V393.7z M505.9,506.2h-15v-12.5c0-4.1-3.4-7.5-7.5-7.5s-7.5,3.4-7.5,7.5v12.5
				h-55v-12.5c0-4.1-3.4-7.5-7.5-7.5s-7.5,3.4-7.5,7.5v12.5h-15v-17.5c0-21,11.4-40.1,29.4-50.2c6.9,7.8,16.9,12.7,28.1,12.7
				s21.2-4.9,28.1-12.7c18,10.1,29.4,29.2,29.4,50.2V506.2z"/>
		</g>
		<g>
			<path class="st3" d="M277.4,181.7v-12.5h-25v12.5c0,6.9,5.6,12.5,12.5,12.5S277.4,188.6,277.4,181.7z"/>
			<path class="st3" d="M313.6,169.2h-21.1v12.5c0,15.2-12.3,27.5-27.5,27.5s-27.5-12.3-27.5-27.5v-12.5h-21.1
				c-5.6,0-11.3-1.3-16.3-3.7l-42.5-20.6v56.8c0,12.4,10.1,22.5,22.5,22.5h170c12.4,0,22.5-10.1,22.5-22.5v-56.8l-42.5,20.6
				C324.8,167.9,319.2,169.2,313.6,169.2z"/>
			<path class="st3" d="M374.9,49.2h-42.5V31.7c0-12.4-10.1-22.5-22.5-22.5h-90c-12.4,0-22.5,10.1-22.5,22.5v17.5h-42.5
				c-4.1,0-7.5,3.4-7.5,7.5v52.6c0,8.6,5,16.5,12.7,20.3l46.4,22.4c3,1.5,6.4,2.2,9.8,2.2h97.3c3.4,0,6.8-0.8,9.8-2.2l46.4-22.4
				c0,0,0,0,0,0c7.7-3.7,12.7-11.7,12.7-20.3V56.7C382.4,52.6,379.1,49.2,374.9,49.2z M194.9,104.2h-10c-4.1,0-7.5-3.4-7.5-7.5
				s3.4-7.5,7.5-7.5h10c4.1,0,7.5,3.4,7.5,7.5S199.1,104.2,194.9,104.2z M309.9,104.2h-90c-4.1,0-7.5-3.4-7.5-7.5s3.4-7.5,7.5-7.5
				h90c4.1,0,7.5,3.4,7.5,7.5S314.1,104.2,309.9,104.2z M317.4,49.2h-105V31.7c0-4.1,3.4-7.5,7.5-7.5h90c4.1,0,7.5,3.4,7.5,7.5V49.2
				z M344.9,104.2h-10c-4.1,0-7.5-3.4-7.5-7.5s3.4-7.5,7.5-7.5h10c4.1,0,7.5,3.4,7.5,7.5S349.1,104.2,344.9,104.2z"/>
		</g>
	</g>
</g>
</svg>
